# xmcd CD database file
#
# Track frame offsets:
#	150
#	11375
#	24900
#	36157
#	49480
#	63045
#	75822
#	88362
#	100492
#	113940
#	125665
#	137260
#	147162
#	160562
#	172730
#	184735
#	196135
#	208275
#	219430
#	230385
#	241442
#	253997
#	263180
#	272990
#	283040
#	296150
#	307900
#	317307
#
# Disc length: 4389 seconds
#
# Revision: 0
# Processed by: cddbd v1.4PL0 Copyright (c) Steve Scherf et al.
# Submitted via: CDex 1.50
#
DISCID=8c11231c
DTITLE=Jimmy Wakely - The Melody Kid - 1940-51
DYEAR=1940
DGENRE=Country
TTITLE0=Cimmaron
TTITLE1=Too Late
TTITLE2=Im Sending You Red Roses
TTITLE3=You Cant Break The Chains Of Love
TTITLE4=Song of the Sierras
TTITLE5=One Has My Name The Other  Has My Heart
TTITLE6=I Love You So Much It Hurts
TTITLE7=Till The End of the World
TTITLE8=Mine, All Mine
TTITLE9=Someday You'l Call My Name
TTITLE10=Too Bad, Little Girl
TTITLE11=Slippin Around
TTITLE12=I Wish I Had A Nickel
TTITLE13=Wedding Bells
TTITLE14=Tellin My Trouble To My Old Guitar
TTITLE15=Broken Down Merry-go-round
TTITLE16=Neath The Purple of the Hills
TTITLE17=The Gods Were Angry With Me
TTITLE18=Ill Be Faithful
TTITLE19=Lets Go To Church Next Sunday Morning
TTITLE20=Beautiful Brown Eyes
TTITLE21=A Bushel And A Peck
TTITLE22=Dust
TTITLE23=When You And I Were Young Maggie, Blues
TTITLE24=My Heart Cries For You
TTITLE25=I Dont Want To Be Free
TTITLE26=The Solid South
TTITLE27=At The Close of a Long Day
EXTD=YEAR: 1940
EXTT0=
EXTT1=
EXTT2=
EXTT3=
EXTT4=
EXTT5=
EXTT6=
EXTT7=
EXTT8=
EXTT9=
EXTT10=
EXTT11=
EXTT12=
EXTT13=
EXTT14=
EXTT15=
EXTT16=
EXTT17=
EXTT18=
EXTT19=
EXTT20=
EXTT21=
EXTT22=
EXTT23=
EXTT24=
EXTT25=
EXTT26=
EXTT27=
PLAYORDER=
